<?xml version="1.0" encoding="UTF-8" standalone="no"?>
<!-- Created with Inkscape (http://www.inkscape.org/) -->

<svg
   xmlns:dc="http://purl.org/dc/elements/1.1/"
   xmlns:cc="http://creativecommons.org/ns#"
   xmlns:rdf="http://www.w3.org/1999/02/22-rdf-syntax-ns#"
   xmlns:svg="http://www.w3.org/2000/svg"
   xmlns="http://www.w3.org/2000/svg"
   xmlns:sodipodi="http://sodipodi.sourceforge.net/DTD/sodipodi-0.dtd"
   xmlns:inkscape="http://www.inkscape.org/namespaces/inkscape"
   width="230.31496"
   height="194.88188"
   id="svg3100"
   version="1.1"
   inkscape:version="0.48.0 r9654"
   sodipodi:docname="Neues Dokument 5">
  <defs
     id="defs3102" />
  <sodipodi:namedview
     id="base"
     pagecolor="#ffffff"
     bordercolor="#666666"
     borderopacity="1.0"
     inkscape:pageopacity="0.0"
     inkscape:pageshadow="2"
     inkscape:zoom="1.979899"
     inkscape:cx="111.3694"
     inkscape:cy="92.161771"
     inkscape:document-units="px"
     inkscape:current-layer="layer1"
     showgrid="false"
     inkscape:window-width="771"
     inkscape:window-height="577"
     inkscape:window-x="631"
     inkscape:window-y="259"
     inkscape:window-maximized="0" />
  <metadata
     id="metadata3105">
    <rdf:RDF>
      <cc:Work
         rdf:about="">
        <dc:format>image/svg+xml</dc:format>
        <dc:type
           rdf:resource="http://purl.org/dc/dcmitype/StillImage" />
        <dc:title></dc:title>
      </cc:Work>
    </rdf:RDF>
  </metadata>
  <g
     inkscape:label="Ebene 1"
     inkscape:groupmode="layer"
     id="layer1"
     transform="translate(0,-857.4803)">
    <g
       id="g4216"
       transform="matrix(0.59097224,0.24035681,-0.24035681,0.59097224,80.291892,819.23667)">
      <path
         transform="matrix(0.38629284,0,0,0.24164527,22.662771,169.84132)"
         sodipodi:open="true"
         sodipodi:end="6.2768464"
         sodipodi:start="0"
         d="m 389.71877,444.50916 c 0,116.28708 -77.79036,210.55639 -173.74962,210.55639 -95.95927,0 -173.749622,-94.26931 -173.749622,-210.55639 0,-116.28709 77.790352,-210.5564 173.749622,-210.5564 95.52943,0 173.14058,93.45784 173.74612,209.22171"
         sodipodi:ry="210.5564"
         sodipodi:rx="173.74962"
         sodipodi:cy="444.50916"
         sodipodi:cx="215.96915"
         id="path4028"
         style="fill:#8BA0E3;fill-opacity:1;stroke:none"
         sodipodi:type="arc" />
      <path
         sodipodi:nodetypes="ccccccccccccccccccccccccccccccccccccccccccccccccc"
         inkscape:connector-curvature="0"
         id="path2996"
         d="M 96.557323,339.31343 C 80.002963,337.46055 64.168673,331.45948 51.13568,320.9756 34.34452,310.92017 22.51844,290.1761 28.18624,270.55923 c 5.87334,-27.15862 27.497313,-50.40824 54.912563,-56.28677 20.501087,-5.73721 44.327687,-5.94006 61.786517,7.87827 5.82447,3.42538 15.95499,13.80235 10.93811,0.46405 -2.0896,-18.36727 1.54127,-36.96234 -2.41267,-55.20416 -4.67862,-26.88273 -3.60496,-54.35226 -4.65127,-81.448236 0.47211,-16.18911 -1.81389,-32.3566 -1.62045,-48.54624 -3.774,-12.02323 0.66511,-33.9706204 17.27478,-25.74559 14.2885,1.6538 22.87976,13.20021 29.40903,24.79108 21.2695,45.96023 14.52481,64.864776 44.2069,90.636426 1.62394,18.36565 -13.32331,3.45938 -19.64108,-2.2088 -12.1899,-8.91897 -23.47472,-21.20027 -24.40464,-37.057766 -3.11382,-19.79237 -5.62,-43.66984 -24.61624,-55.0294 -11.07305,-8.75384 -14.13884,2.15684 -11.60088,12.0916 3.02982,41.15949 8.78924,76.550476 9.87884,117.880766 -3.00089,13.68429 3.56649,27.14421 2.03285,40.99514 0.97319,16.36645 4.94511,32.39563 6.7674,48.6764 3.00451,15.98664 5.28754,33.2184 0.0804,48.85774 -6.90636,17.04645 -25.18007,24.0473 -39.95317,32.72293 -12.17681,6.79392 -26.66766,4.71 -40.015897,5.28676 z m 11.586517,-12.53926 c 16.87689,2.43517 32.45525,-5.16899 44.85503,-15.84314 15.86105,-10.29242 16.16502,-30.99694 7.59151,-46.10062 -8.03498,-18.01739 -26.27517,-30.68649 -45.63671,-33.61145 -13.60423,-2.47798 -29.080397,-5.88789 -41.222227,3.03016 -15.6563,6.39745 -25.548723,20.56478 -28.636583,36.80587 -4.23517,15.98385 7.28748,30.25065 17.992203,40.50193 10.3304,7.88446 23.80995,9.23621 34.98383,15.15812 3.747837,1.01206 7.153507,-0.64243 10.072947,0.0591 z m -25.976997,-20.7192 c -5.89989,-16.42215 12.93983,-31.80172 28.470957,-25.90597 9.49639,5.08945 20.45382,24.38794 8.01453,15.36251 -9.92149,-13.94346 -32.979797,-7.46669 -31.798187,10.22271 -0.95908,1.68732 -3.39632,1.00378 -4.6873,0.32075 z m -0.75,-35.79944 c -17.39597,-9.62316 16.66489,-23.11363 11.12126,-4.24669 -2.18796,3.67103 -7.03214,5.61875 -11.12126,4.24669 z m 31.965607,-3.4194 c -10.88233,-17.07149 26.92277,-9.55862 10.60093,2.23707 -3.33625,1.79929 -8.863,1.74203 -10.60093,-2.23707 z m 9.53439,1.25 c 4.97022,-7.39757 -8.15653,1.30013 -0.24467,0.24804 z M 202.6892,57.862984 c -3.92297,-8.61297 2.2604,9.8261 0,0 z"
         style="fill:#000000;fill-opacity:1" />
    </g>
  </g>
</svg>
